<svg xmlns="http://www.w3.org/2000/svg" width="512" height="512" viewBox="0 0 512 512" fill="none"><metadata><rdf:RDF xmlns:rdf="http://www.w3.org/1999/02/22-rdf-syntax-ns#" xmlns:dc="http://purl.org/dc/elements/1.1/"><rdf:Description><dc:creator>RealFaviconGenerator</dc:creator><dc:source>https://realfavicongenerator.net</dc:source></rdf:Description></rdf:RDF></metadata><path d="M305.473 126.17L304.421 127.238H303.369H302.317H301.265H300.213H299.161H298.108H297.056H296.004H294.952H293.9H292.848H291.796H290.744H289.692H288.64H287.588H286.536H285.484H284.432H283.38H282.328H281.276H280.223H279.171H278.119H277.067H276.015H274.963H273.911H272.859H271.807H270.755H269.703H268.651H267.599H266.547H265.495H264.443H263.39H262.338L261.286 128.306L260.234 129.374L259.182 130.443L258.13 131.511L257.078 132.579L256.026 133.648L254.974 134.716L253.922 135.784H252.87L251.818 136.852L250.766 137.921L249.714 138.989L248.662 140.057L247.61 141.126L246.558 142.194L245.505 143.262L244.453 144.33H243.401L242.349 145.399L241.297 146.467L240.245 147.535L239.193 148.604L238.141 149.672L237.089 150.74L236.037 151.808L234.985 152.877L233.933 153.945H232.881L231.829 155.013L230.777 156.082L229.725 157.15L228.672 158.218L227.62 159.286L226.568 160.355L225.516 161.423L224.464 162.491H223.412L222.36 163.559L221.308 164.628L220.256 165.696L219.204 166.764L218.152 167.833L217.1 168.901L216.048 169.969L214.996 171.037L213.944 172.106H212.892L211.839 173.174L210.787 174.242L209.735 175.311L208.683 176.379L207.631 177.447L206.579 178.515L205.527 179.584L204.475 180.652H203.423L202.371 181.72L201.319 182.789L200.267 183.857L199.215 184.925L198.163 185.993L197.111 187.062L196.059 188.13L195.007 189.198L193.954 190.267H192.902L191.85 191.335L190.798 192.403L189.746 193.471L188.694 194.54L187.642 195.608L186.59 196.676L185.538 197.744L184.486 198.813H183.434L182.382 199.881L181.33 200.949L180.278 202.018L179.226 203.086L178.174 204.154L177.121 205.222L176.069 206.291L175.017 207.359L173.965 208.427H172.913L171.861 209.496L170.809 210.564L169.757 211.632L168.705 212.7L167.653 213.769V214.837L168.705 215.905V216.974L169.757 218.042L170.809 219.11L171.861 220.178L172.913 221.247L173.965 222.315L175.017 223.383L176.069 224.452L177.121 225.52L178.174 226.588V227.656L179.226 228.725L180.278 229.793L181.33 230.861L182.382 231.93L183.434 232.998L184.486 234.066L185.538 235.134L186.59 236.203V237.271L187.642 238.339L188.694 239.407L189.746 240.476L190.798 241.544L191.85 242.612L192.902 243.681L193.954 244.749L195.007 245.817L196.059 246.885V247.954L197.111 249.022L198.163 250.09L199.215 251.159L200.267 252.227L201.319 253.295L202.371 254.363L203.423 255.432L204.475 256.5L205.527 257.568V258.637L206.579 259.705L207.631 260.773L208.683 261.841L209.735 262.91L210.787 263.978L211.839 265.046L212.892 266.115L213.944 267.183H214.996L216.048 266.115L217.1 265.046L218.152 263.978L219.204 262.91H220.256L221.308 261.841L222.36 260.773L223.412 259.705L224.464 258.637L225.516 257.568L226.568 256.5L227.62 255.432L228.672 254.363H229.725L230.777 253.295L231.829 252.227L232.881 251.159L233.933 250.09L234.985 249.022L236.037 247.954L237.089 246.885L238.141 245.817H239.193L240.245 244.749L241.297 243.681L242.349 242.612L243.401 241.544L244.453 240.476L245.505 239.407L246.558 238.339L247.61 237.271H248.662L249.714 236.203L250.766 235.134L251.818 234.066L252.87 232.998L253.922 231.93L254.974 230.861L256.026 229.793L257.078 228.725H258.13L259.182 227.656L260.234 226.588L261.286 225.52L262.338 224.452L263.39 223.383L264.443 222.315L265.495 221.247L266.547 220.178H267.599L268.651 219.11L269.703 218.042L270.755 216.974L271.807 215.905L272.859 214.837L273.911 213.769L274.963 212.7L276.015 211.632H277.067L278.119 210.564L279.171 209.496L280.223 208.427L281.276 207.359L282.328 206.291L283.38 205.222L284.432 204.154L285.484 203.086L286.536 202.018H287.588L288.64 200.949L289.692 199.881L290.744 198.813H291.796H292.848H293.9H294.952H296.004H297.056H298.108H299.161H300.213H301.265H302.317H303.369H304.421H305.473H306.525H307.577H308.629H309.681H310.733H311.785H312.837H313.889H314.941H315.994H317.046H318.098H319.15H320.202H321.254H322.306H323.358L324.41 199.881L325.462 200.949L326.514 202.018V203.086L327.566 204.154L328.618 205.222L329.67 206.291L330.722 207.359V208.427L331.774 209.496L332.826 210.564L333.879 211.632V212.7L334.931 213.769L335.983 214.837L337.035 215.905L338.087 216.974V218.042L339.139 219.11L340.191 220.178L341.243 221.247V222.315L342.295 223.383L343.347 224.452L344.399 225.52L345.451 226.588V227.656L346.503 228.725L347.555 229.793L348.607 230.861V231.93L349.659 232.998L350.712 234.066L351.764 235.134L352.816 236.203V237.271L353.868 238.339L354.92 239.407L355.972 240.476L357.024 241.544V242.612L358.076 243.681L359.128 244.749L360.18 245.817V246.885L361.232 247.954L362.284 249.022L363.336 250.09L364.388 251.159V252.227L365.44 253.295L366.492 254.363L367.545 255.432V256.5L368.597 257.568L369.649 258.637L370.701 259.705L371.753 260.773V261.841L372.805 262.91L373.857 263.978L374.909 265.046V266.115L375.961 267.183L377.013 268.251L378.065 269.319L379.117 270.388V271.456L380.169 272.524L381.221 273.593L382.273 274.661V275.729L383.325 276.797L384.377 277.866L385.43 278.934L386.482 280.002V281.07L387.534 282.139L388.586 283.207L389.638 284.275V285.344L390.69 286.412L391.742 287.48L392.794 288.548L393.846 289.617V290.685L394.898 291.753L395.95 292.822L397.002 293.89V294.958L398.054 296.026L399.106 297.095L400.158 298.163L401.21 299.231V300.3L402.263 301.368L403.315 302.436L404.367 303.504L403.315 304.573L402.263 305.641L401.21 306.709L400.158 307.778L399.106 308.846L398.054 309.914L397.002 310.982L395.95 312.051L394.898 313.119L393.846 314.187L392.794 315.255L391.742 316.324L390.69 317.392L389.638 318.46L388.586 319.529L387.534 320.597L386.482 321.665L385.43 322.733H384.377L383.325 323.802L382.273 324.87L381.221 325.938L380.169 327.007L379.117 328.075L378.065 329.143L377.013 330.211L375.961 331.28L374.909 332.348L373.857 333.416L372.805 334.485L371.753 335.553L370.701 336.621L369.649 337.689L368.597 338.758L367.545 339.826L366.492 340.894L365.44 341.963L364.388 343.031L363.336 344.099L362.284 345.167L361.232 346.236L360.18 347.304L359.128 348.372L358.076 349.441L357.024 350.509L355.972 351.577L354.92 352.645L353.868 353.714L352.816 354.782L351.764 355.85L350.712 356.918L349.659 357.987L348.607 359.055L347.555 360.123L346.503 361.192L345.451 362.26L344.399 363.328H343.347L342.295 364.396L341.243 365.465L340.191 366.533L339.139 367.601L338.087 368.67L337.035 369.738L335.983 370.806L334.931 371.874L333.879 372.943L332.826 374.011L331.774 375.079L330.722 376.148L329.67 377.216L328.618 378.284L327.566 379.352L326.514 380.421L325.462 381.489L324.41 382.557L323.358 383.626L322.306 384.694L321.254 385.762L320.202 386.83L319.15 387.899L318.098 388.967L317.046 390.035L315.994 391.103L314.941 392.172L313.889 393.24L312.837 394.308L311.785 395.377L310.733 396.445L309.681 397.513L308.629 398.581L307.577 399.65L306.525 400.718L305.473 401.786L304.421 402.855L303.369 403.923H302.317L301.265 404.991L300.213 406.059L299.161 407.128L298.108 408.196L297.056 409.264L296.004 410.333L294.952 411.401L293.9 412.469L292.848 413.537L291.796 414.606L290.744 415.674L289.692 416.742L288.64 417.811L287.588 418.879L286.536 419.947L285.484 421.015L284.432 422.084L283.38 423.152L282.328 424.22L281.276 425.289L280.223 426.357L279.171 427.425H278.119H277.067H276.015H274.963H273.911H272.859H271.807H270.755H269.703H268.651H267.599H266.547H265.495H264.443H263.39H262.338H261.286H260.234H259.182H258.13H257.078H256.026H254.974H253.922H252.87H251.818H250.766H249.714H248.662H247.61H246.558H245.505H244.453H243.401H242.349H241.297H240.245H239.193H238.141H237.089H236.037H234.985H233.933H232.881H231.829H230.777H229.725H228.672H227.62H226.568H225.516H224.464H223.412H222.36H221.308H220.256H219.204H218.152H217.1H216.048H214.996H213.944H212.892H211.839H210.787H209.735H208.683H207.631H206.579H205.527H204.475H203.423H202.371H201.319H200.267H199.215H198.163H197.111H196.059H195.007H193.954H192.902H191.85H190.798H189.746H188.694H187.642H186.59H185.538H184.486H183.434H182.382H181.33H180.278H179.226H178.174H177.121H176.069H175.017H173.965H172.913H171.861H170.809H169.757H168.705H167.653H166.601H165.549H164.497H163.445H162.393H161.341H160.289H159.236H158.184H157.132H156.08H155.028H153.976H152.924H151.872H150.82H149.768H148.716H147.664H146.612H145.56H144.508H143.456H142.403H141.351L140.299 426.357L139.247 425.289L138.195 424.22V423.152L137.143 422.084L136.091 421.015L135.039 419.947V418.879L133.987 417.811L132.935 416.742L131.883 415.674L130.831 414.606V413.537L129.779 412.469L128.727 411.401L127.675 410.333V409.264L126.623 408.196L125.571 407.128L124.518 406.059V404.991L123.466 403.923L122.414 402.855L121.362 401.786V400.718L120.31 399.65L119.258 398.581L118.206 397.513V396.445L117.154 395.377L116.102 394.308L115.05 393.24L113.998 392.172V391.103L112.946 390.035L111.894 388.967L110.842 387.899V386.83L109.79 385.762L108.738 384.694L107.685 383.626V382.557L106.633 381.489L105.581 380.421L104.529 379.352V378.284L103.477 377.216L102.425 376.148L101.373 375.079V374.011L100.321 372.943L99.269 371.874L98.2169 370.806L97.1649 369.738V368.67L96.1128 367.601L95.0607 366.533L94.0087 365.465V364.396L92.9566 363.328L91.9046 362.26L90.8525 361.192V360.123L89.8004 359.055L88.7484 357.987L87.6963 356.918V355.85L86.6443 354.782L85.5922 353.714L84.5401 352.645V351.577L83.4881 350.509L82.436 349.441L81.384 348.372L80.3319 347.304V346.236L79.2798 345.167L78.2278 344.099L77.1757 343.031V341.963L76.1237 340.894L75.0716 339.826L74.0195 338.758V337.689L72.9675 336.621L71.9154 335.553L70.8633 334.485V333.416L69.8113 332.348L68.7592 331.28L67.7072 330.211V329.143L66.6551 328.075L65.603 327.007L64.551 325.938L63.4989 324.87V323.802L62.4469 322.733L61.3948 321.665L60.3427 320.597V319.529L59.2907 318.46L58.2386 317.392L57.1866 316.324V315.255L56.1345 314.187L55.0824 313.119L54.0304 312.051V310.982L52.9783 309.914L51.9263 308.846L50.8742 307.778L49.8221 306.709V305.641L48.7701 304.573L47.718 303.504L46.6659 302.436V301.368L45.6139 300.3L44.5618 299.231L43.5098 298.163V297.095L42.4577 296.026L41.4056 294.958L40.3536 293.89V292.822L39.3015 291.753L38.2495 290.685L37.1974 289.617V288.548L36.1453 287.48L35.0933 286.412L34.0412 285.344L32.9892 284.275V283.207L31.9371 282.139L30.885 281.07L29.833 280.002V278.934L28.7809 277.866L27.7289 276.797L26.6768 275.729V274.661L25.6247 273.593L24.5727 272.524L23.5206 271.456V270.388L22.4685 269.319L21.4165 268.251L20.3644 267.183V266.115L19.3124 265.046L18.2603 263.978L17.2082 262.91L16.1562 261.841V260.773L15.1041 259.705L14.0521 258.637L13 257.568V258.637V259.705V260.773V261.841V262.91V263.978V265.046V266.115V267.183V268.251V269.319V270.388V271.456V272.524V273.593V274.661V275.729V276.797V277.866V278.934V280.002V281.07V282.139V283.207V284.275V285.344V286.412V287.48V288.548V289.617V290.685V291.753V292.822V293.89V294.958V296.026V297.095V298.163V299.231V300.3V301.368V302.436V303.504V304.573V305.641V306.709V307.778V308.846V309.914V310.982V312.051V313.119V314.187V315.255V316.324V317.392V318.46V319.529V320.597V321.665V322.733V323.802V324.87V325.938V327.007V328.075V329.143V330.211V331.28V332.348V333.416V334.485V335.553V336.621V337.689V338.758V339.826V340.894V341.963V343.031V344.099V345.167V346.236V347.304V348.372V349.441V350.509V351.577V352.645V353.714V354.782V355.85V356.918V357.987V359.055V360.123V361.192V362.26V363.328V364.396V365.465V366.533V367.601V368.67V369.738V370.806V371.874V372.943V374.011V375.079V376.148L14.0521 377.216L15.1041 378.284V379.352L16.1562 380.421L17.2082 381.489L18.2603 382.557V383.626L19.3124 384.694L20.3644 385.762L21.4165 386.83V387.899L22.4685 388.967L23.5206 390.035L24.5727 391.103L25.6247 392.172V393.24L26.6768 394.308L27.7289 395.377L28.7809 396.445V397.513L29.833 398.581L30.885 399.65L31.9371 400.718V401.786L32.9892 402.855L34.0412 403.923L35.0933 404.991V406.059L36.1453 407.128L37.1974 408.196L38.2495 409.264V410.333L39.3015 411.401L40.3536 412.469L41.4056 413.537L42.4577 414.606V415.674L43.5098 416.742L44.5618 417.811L45.6139 418.879V419.947L46.6659 421.015L47.718 422.084L48.7701 423.152V424.22L49.8221 425.289L50.8742 426.357L51.9263 427.425V428.493L52.9783 429.562L54.0304 430.63L55.0824 431.698V432.766L56.1345 433.835L57.1866 434.903L58.2386 435.971L59.2907 437.04V438.108L60.3427 439.176L61.3948 440.244L62.4469 441.313V442.381L63.4989 443.449L64.551 444.518L65.603 445.586V446.654L66.6551 447.722L67.7072 448.791L68.7592 449.859V450.927L69.8113 451.996L70.8633 453.064L71.9154 454.132L72.9675 455.2V456.269L74.0195 457.337L75.0716 458.405L76.1237 459.474V460.542L77.1757 461.61L78.2278 462.678L79.2798 463.747V464.815L80.3319 465.883L81.384 466.952L82.436 468.02V469.088L83.4881 470.156L84.5401 471.225L85.5922 472.293V473.361L86.6443 474.429L87.6963 475.498L88.7484 476.566L89.8004 477.634V478.703L90.8525 479.771L91.9046 480.839L92.9566 481.907V482.976L94.0087 484.044L95.0607 485.112L96.1128 486.181V487.249L97.1649 488.317L98.2169 489.385L99.269 490.454V491.522L100.321 492.59L101.373 493.659L102.425 494.727V495.795L103.477 496.863L104.529 497.932L105.581 499H106.633H107.685H108.738H109.79H110.842H111.894H112.946H113.998H115.05H116.102H117.154H118.206H119.258H120.31H121.362H122.414H123.466H124.518H125.571H126.623H127.675H128.727H129.779H130.831H131.883H132.935H133.987H135.039H136.091H137.143H138.195H139.247H140.299H141.351H142.403H143.456H144.508H145.56H146.612H147.664H148.716H149.768H150.82H151.872H152.924H153.976H155.028H156.08H157.132H158.184H159.236H160.289H161.341H162.393H163.445H164.497H165.549H166.601H167.653H168.705H169.757H170.809H171.861H172.913H173.965H175.017H176.069H177.121H178.174H179.226H180.278H181.33H182.382H183.434H184.486H185.538H186.59H187.642H188.694H189.746H190.798H191.85H192.902H193.954H195.007H196.059H197.111H198.163H199.215H200.267H201.319H202.371H203.423H204.475H205.527H206.579H207.631H208.683H209.735H210.787H211.839H212.892H213.944H214.996H216.048H217.1H218.152H219.204H220.256H221.308H222.36H223.412H224.464H225.516H226.568H227.62H228.672H229.725H230.777H231.829H232.881H233.933H234.985H236.037H237.089H238.141H239.193H240.245H241.297H242.349H243.401H244.453H245.505H246.558H247.61H248.662H249.714H250.766H251.818H252.87H253.922H254.974H256.026H257.078H258.13H259.182H260.234H261.286H262.338H263.39H264.443H265.495H266.547H267.599H268.651H269.703H270.755H271.807H272.859H273.911H274.963H276.015H277.067H278.119H279.171H280.223H281.276H282.328H283.38H284.432H285.484H286.536H287.588H288.64H289.692H290.744H291.796H292.848H293.9H294.952H296.004H297.056H298.108H299.161H300.213H301.265H302.317H303.369H304.421H305.473H306.525H307.577H308.629L309.681 497.932L310.733 496.863L311.785 495.795L312.837 494.727L313.889 493.659L314.941 492.59L315.994 491.522L317.046 490.454L318.098 489.385L319.15 488.317L320.202 487.249H321.254L322.306 486.181L323.358 485.112L324.41 484.044L325.462 482.976L326.514 481.907L327.566 480.839L328.618 479.771L329.67 478.703L330.722 477.634L331.774 476.566L332.826 475.498L333.879 474.429L334.931 473.361L335.983 472.293L337.035 471.225L338.087 470.156L339.139 469.088L340.191 468.02L341.243 466.952L342.295 465.883L343.347 464.815L344.399 463.747L345.451 462.678L346.503 461.61L347.555 460.542L348.607 459.474L349.659 458.405L350.712 457.337L351.764 456.269L352.816 455.2L353.868 454.132L354.92 453.064L355.972 451.996L357.024 450.927L358.076 449.859L359.128 448.791L360.18 447.722L361.232 446.654L362.284 445.586L363.336 444.518L364.388 443.449L365.44 442.381L366.492 441.313L367.545 440.244L368.597 439.176H369.649L370.701 438.108L371.753 437.04L372.805 435.971L373.857 434.903L374.909 433.835L375.961 432.766L377.013 431.698L378.065 430.63L379.117 429.562L380.169 428.493L381.221 427.425L382.273 426.357L383.325 425.289L384.377 424.22L385.43 423.152L386.482 422.084L387.534 421.015L388.586 419.947L389.638 418.879L390.69 417.811L391.742 416.742L392.794 415.674L393.846 414.606L394.898 413.537L395.95 412.469L397.002 411.401L398.054 410.333L399.106 409.264L400.158 408.196L401.21 407.128L402.263 406.059L403.315 404.991L404.367 403.923L405.419 402.855L406.471 401.786L407.523 400.718L408.575 399.65L409.627 398.581L410.679 397.513L411.731 396.445L412.783 395.377L413.835 394.308L414.887 393.24L415.939 392.172H416.991L418.043 391.103L419.095 390.035L420.148 388.967L421.2 387.899L422.252 386.83L423.304 385.762L424.356 384.694L425.408 383.626L426.46 382.557L427.512 381.489L428.564 380.421L429.616 379.352L430.668 378.284L431.72 377.216L432.772 376.148L433.824 375.079L434.876 374.011L435.928 372.943L436.981 371.874L438.033 370.806L439.085 369.738L440.137 368.67L441.189 367.601L442.241 366.533L443.293 365.465L444.345 364.396L445.397 363.328L446.449 362.26L447.501 361.192L448.553 360.123L449.605 359.055L450.657 357.987L451.709 356.918L452.761 355.85L453.813 354.782L454.866 353.714L455.918 352.645L456.97 351.577L458.022 350.509L459.074 349.441L460.126 348.372L461.178 347.304L462.23 346.236L463.282 345.167L464.334 344.099H465.386L466.438 343.031L467.49 341.963L468.542 340.894L469.594 339.826L470.646 338.758L471.699 337.689L472.751 336.621L473.803 335.553L474.855 334.485L475.907 333.416L476.959 332.348L478.011 331.28L479.063 330.211L480.115 329.143L481.167 328.075L482.219 327.007L483.271 325.938L484.323 324.87L485.375 323.802L486.427 322.733L487.479 321.665L488.532 320.597L489.584 319.529L490.636 318.46L491.688 317.392L492.74 316.324L493.792 315.255L494.844 314.187L495.896 313.119L496.948 312.051L498 310.982V309.914V308.846L496.948 307.778V306.709L495.896 305.641L494.844 304.573L493.792 303.504V302.436L492.74 301.368L491.688 300.3L490.636 299.231L489.584 298.163V297.095L488.532 296.026L487.479 294.958L486.427 293.89V292.822L485.375 291.753L484.323 290.685L483.271 289.617L482.219 288.548V287.48L481.167 286.412L480.115 285.344L479.063 284.275V283.207L478.011 282.139L476.959 281.07L475.907 280.002L474.855 278.934V277.866L473.803 276.797L472.751 275.729L471.699 274.661V273.593L470.646 272.524L469.594 271.456L468.542 270.388L467.49 269.319V268.251L466.438 267.183L465.386 266.115L464.334 265.046V263.978L463.282 262.91L462.23 261.841L461.178 260.773L460.126 259.705V258.637L459.074 257.568L458.022 256.5L456.97 255.432V254.363L455.918 253.295L454.866 252.227L453.813 251.159L452.761 250.09V249.022L451.709 247.954L450.657 246.885L449.605 245.817V244.749L448.553 243.681L447.501 242.612L446.449 241.544L445.397 240.476V239.407L444.345 238.339L443.293 237.271L442.241 236.203V235.134L441.189 234.066L440.137 232.998L439.085 231.93L438.033 230.861V229.793L436.981 228.725L435.928 227.656L434.876 226.588V225.52L433.824 224.452L432.772 223.383L431.72 222.315L430.668 221.247V220.178L429.616 219.11L428.564 218.042L427.512 216.974V215.905L426.46 214.837L425.408 213.769L424.356 212.7L423.304 211.632V210.564L422.252 209.496L421.2 208.427L420.148 207.359V206.291L419.095 205.222L418.043 204.154L416.991 203.086L415.939 202.018V200.949L414.887 199.881L413.835 198.813L412.783 197.744V196.676L411.731 195.608L410.679 194.54L409.627 193.471L408.575 192.403V191.335L407.523 190.267L406.471 189.198L405.419 188.13V187.062L404.367 185.993L403.315 184.925L402.263 183.857L401.21 182.789V181.72L400.158 180.652L399.106 179.584L398.054 178.515V177.447L397.002 176.379L395.95 175.311L394.898 174.242L393.846 173.174V172.106L392.794 171.037L391.742 169.969L390.69 168.901L389.638 167.833V166.764L388.586 165.696L387.534 164.628L386.482 163.559V162.491L385.43 161.423L384.377 160.355L383.325 159.286L382.273 158.218V157.15L381.221 156.082L380.169 155.013L379.117 153.945V152.877L378.065 151.808L377.013 150.74L375.961 149.672L374.909 148.604V147.535L373.857 146.467L372.805 145.399L371.753 144.33V143.262L370.701 142.194L369.649 141.126L368.597 140.057L367.545 138.989V137.921L366.492 136.852L365.44 135.784L364.388 134.716V133.648L363.336 132.579L362.284 131.511L361.232 130.443L360.18 129.374V128.306L359.128 127.238L358.076 126.17H357.024H355.972H354.92H353.868H352.816H351.764H350.712H349.659H348.607H347.555H346.503H345.451H344.399H343.347H342.295H341.243H340.191H339.139H338.087H337.035H335.983H334.931H333.879H332.826H331.774H330.722H329.67H328.618H327.566H326.514H325.462H324.41H323.358H322.306H321.254H320.202H319.15H318.098H317.046H315.994H314.941H313.889H312.837H311.785H310.733H309.681H308.629H307.577H306.525H305.473Z" fill="#2758C8"></path><path d="M203.423 14L202.371 15.0683L201.319 16.1366L200.267 17.2048L199.215 18.2731L198.163 19.3414L197.111 20.4097L196.059 21.478L195.007 22.5463L193.954 23.6145L192.902 24.6828L191.85 25.7511L190.798 26.8194L189.746 27.8877L188.694 28.9559L187.642 30.0242L186.59 31.0925L185.538 32.1608L184.486 33.2291L183.434 34.2974L182.382 35.3656L181.33 36.4339L180.278 37.5022L179.226 38.5705L178.174 39.6388L177.121 40.707H176.069L175.017 41.7753L173.965 42.8436L172.913 43.9119L171.861 44.9802L170.809 46.0485L169.757 47.1167L168.705 48.185L167.653 49.2533L166.601 50.3216L165.549 51.3899L164.497 52.4581L163.445 53.5264L162.393 54.5947L161.341 55.663L160.289 56.7313L159.236 57.7996L158.184 58.8678L157.132 59.9361L156.08 61.0044L155.028 62.0727L153.976 63.141L152.924 64.2092L151.872 65.2775L150.82 66.3458L149.768 67.4141L148.716 68.4824L147.664 69.5507L146.612 70.6189L145.56 71.6872L144.508 72.7555L143.456 73.8238L142.403 74.8921L141.351 75.9603L140.299 77.0286L139.247 78.0969L138.195 79.1652L137.143 80.2335L136.091 81.3018L135.039 82.37L133.987 83.4383L132.935 84.5066L131.883 85.5749H130.831L129.779 86.6432L128.727 87.7114L127.675 88.7797L126.623 89.848L125.571 90.9163L124.518 91.9846L123.466 93.0528L122.414 94.1211L121.362 95.1894L120.31 96.2577L119.258 97.326L118.206 98.3943L117.154 99.4625L116.102 100.531L115.05 101.599L113.998 102.667L112.946 103.736L111.894 104.804L110.842 105.872L109.79 106.941L108.738 108.009L107.685 109.077L106.633 110.145L105.581 111.214L104.529 112.282L103.477 113.35L102.425 114.418L101.373 115.487L100.321 116.555L99.269 117.623L98.2169 118.692L97.1649 119.76L96.1128 120.828L95.0607 121.896L94.0087 122.965L92.9566 124.033L91.9046 125.101L90.8525 126.17L89.8004 127.238L88.7484 128.306L87.6963 129.374H86.6443L85.5922 130.443L84.5401 131.511L83.4881 132.579L82.436 133.648L81.384 134.716L80.3319 135.784L79.2798 136.852L78.2278 137.921L77.1757 138.989L76.1236 140.057L75.0716 141.126L74.0195 142.194L72.9675 143.262L71.9154 144.33L70.8633 145.399L69.8113 146.467L68.7592 147.535L67.7072 148.604L66.6551 149.672L65.603 150.74L64.551 151.808L63.4989 152.877L62.4469 153.945L61.3948 155.013L60.3427 156.081L59.2907 157.15L58.2386 158.218L57.1866 159.286L56.1345 160.355L55.0824 161.423L54.0304 162.491L52.9783 163.559L51.9262 164.628L50.8742 165.696L49.8221 166.764L48.7701 167.833L47.718 168.901L46.6659 169.969L45.6139 171.037L44.5618 172.106L43.5098 173.174L42.4577 174.242H41.4056L40.3536 175.311L39.3015 176.379L38.2495 177.447L37.1974 178.515L36.1453 179.584L35.0933 180.652L34.0412 181.72L32.9892 182.789L31.9371 183.857L30.885 184.925L29.833 185.993L28.7809 187.062L27.7289 188.13L26.6768 189.198L25.6247 190.266L24.5727 191.335L23.5206 192.403L22.4685 193.471L21.4165 194.54L20.3644 195.608L19.3124 196.676L18.2603 197.744L17.2082 198.813L16.1562 199.881L15.1041 200.949L14.0521 202.018L13 203.086L14.0521 204.154L15.1041 205.222L16.1562 206.291V207.359L17.2082 208.427L18.2603 209.496L19.3124 210.564L20.3644 211.632V212.7L21.4165 213.769L22.4685 214.837L23.5206 215.905L24.5727 216.974V218.042L25.6247 219.11L26.6768 220.178L27.7289 221.247V222.315L28.7809 223.383L29.833 224.452L30.885 225.52L31.9371 226.588V227.656L32.9892 228.725L34.0412 229.793L35.0933 230.861V231.929L36.1453 232.998L37.1974 234.066L38.2495 235.134L39.3015 236.203V237.271L40.3536 238.339L41.4056 239.407L42.4577 240.476V241.544L43.5098 242.612L44.5618 243.681L45.6139 244.749L46.6659 245.817V246.885L47.718 247.954L48.7701 249.022L49.8221 250.09V251.159L50.8742 252.227L51.9262 253.295L52.9783 254.363L54.0304 255.432V256.5L55.0824 257.568L56.1345 258.637L57.1866 259.705L58.2386 260.773V261.841L59.2907 262.91L60.3427 263.978L61.3948 265.046V266.115L62.4469 267.183L63.4989 268.251L64.551 269.319L65.603 270.388V271.456L66.6551 272.524L67.7072 273.592L68.7592 274.661V275.729L69.8113 276.797L70.8633 277.866L71.9154 278.934L72.9675 280.002V281.07L74.0195 282.139L75.0716 283.207L76.1236 284.275V285.344L77.1757 286.412L78.2278 287.48L79.2798 288.548L80.3319 289.617V290.685L81.384 291.753L82.436 292.822L83.4881 293.89V294.958L84.5401 296.026L85.5922 297.095L86.6443 298.163L87.6963 299.231V300.299L88.7484 301.368L89.8004 302.436L90.8525 303.504L91.9046 304.573V305.641L92.9566 306.709L94.0087 307.777L95.0607 308.846V309.914L96.1128 310.982L97.1649 312.051L98.2169 313.119L99.269 314.187V315.255L100.321 316.324L101.373 317.392L102.425 318.46V319.529L103.477 320.597L104.529 321.665L105.581 322.733L106.633 323.802V324.87L107.685 325.938L108.738 327.007L109.79 328.075V329.143L110.842 330.211L111.894 331.28L112.946 332.348L113.998 333.416V334.485L115.05 335.553L116.102 336.621L117.154 337.689L118.206 338.758V339.826L119.258 340.894L120.31 341.962L121.362 343.031V344.099L122.414 345.167L123.466 346.236L124.518 347.304L125.571 348.372V349.44L126.623 350.509L127.675 351.577L128.727 352.645V353.714L129.779 354.782L130.831 355.85L131.883 356.918L132.935 357.987V359.055L133.987 360.123L135.039 361.192L136.091 362.26V363.328L137.143 364.396L138.195 365.465L139.247 366.533L140.299 367.601V368.67L141.351 369.738L142.403 370.806L143.456 371.874V372.943L144.508 374.011L145.56 375.079L146.612 376.148L147.664 377.216V378.284L148.716 379.352L149.768 380.421L150.82 381.489L151.872 382.557V383.625L152.924 384.694L153.976 385.762L155.028 386.83H156.08H157.132H158.184H159.236H160.289H161.341H162.393H163.445H164.497H165.549H166.601H167.653H168.705H169.757H170.809H171.861H172.913H173.965H175.017H176.069H177.121H178.174H179.226H180.278H181.33H182.382H183.434H184.486H185.538H186.59H187.642H188.694H189.746H190.798H191.85H192.902L193.954 385.762H195.007H196.059H197.111H198.163H199.215H200.267H201.319H202.371H203.423H204.475H205.527H206.579H207.631H208.683H209.735H210.787H211.839H212.892H213.944H214.996H216.048H217.1H218.152H219.204H220.256H221.308H222.36H223.412H224.464H225.516H226.568H227.62H228.672H229.725H230.777H231.829H232.881H233.933H234.985H236.037H237.089H238.141H239.193H240.245H241.297H242.349H243.401H244.453H245.505H246.557H247.61H248.662H249.714L250.766 384.694L251.818 383.625L252.87 382.557L253.922 381.489L254.974 380.421H256.026L257.078 379.352L258.13 378.284L259.182 377.216L260.234 376.148L261.286 375.079L262.338 374.011L263.39 372.943L264.443 371.874H265.495L266.547 370.806L267.599 369.738L268.651 368.67L269.703 367.601L270.755 366.533L271.807 365.465L272.859 364.396L273.911 363.328L274.963 362.26H276.015L277.067 361.192L278.119 360.123L279.171 359.055L280.223 357.987L281.275 356.918L282.328 355.85L283.38 354.782L284.432 353.714H285.484L286.536 352.645L287.588 351.577L288.64 350.509L289.692 349.44L290.744 348.372L291.796 347.304L292.848 346.236L293.9 345.167H294.952L296.004 344.099L297.056 343.031L298.108 341.962L299.161 340.894L300.213 339.826L301.265 338.758L302.317 337.689L303.369 336.621L304.421 335.553H305.473L306.525 334.485L307.577 333.416L308.629 332.348L309.681 331.28L310.733 330.211L311.785 329.143L312.837 328.075L313.889 327.007H314.941L315.994 325.938L317.046 324.87L318.098 323.802L319.15 322.733L320.202 321.665L321.254 320.597L322.306 319.529L323.358 318.46H324.41L325.462 317.392L326.514 316.324L327.566 315.255L328.618 314.187L329.67 313.119L330.722 312.051L331.774 310.982L332.826 309.914L333.879 308.846H334.931L335.983 307.777L337.035 306.709L338.087 305.641L339.139 304.573L340.191 303.504L341.243 302.436L342.295 301.368L343.347 300.299H344.399L345.451 299.231V298.163L344.399 297.095L343.347 296.026L342.295 294.958L341.243 293.89L340.191 292.822V291.753L339.139 290.685L338.087 289.617L337.035 288.548L335.983 287.48L334.931 286.412L333.879 285.344L332.826 284.275L331.774 283.207V282.139L330.722 281.07L329.67 280.002L328.618 278.934L327.566 277.866L326.514 276.797L325.462 275.729L324.41 274.661L323.358 273.592V272.524L322.306 271.456L321.254 270.388L320.202 269.319L319.15 268.251L318.098 267.183L317.046 266.115L315.994 265.046L314.941 263.978V262.91L313.889 261.841L312.837 260.773L311.785 259.705L310.733 258.637L309.681 257.568L308.629 256.5L307.577 255.432L306.525 254.363L305.473 253.295V252.227L304.421 251.159L303.369 250.09L302.317 249.022L301.265 247.954L300.213 246.885L299.161 245.817L298.108 244.749L297.056 245.817L296.004 246.885L294.952 247.954L293.9 249.022L292.848 250.09L291.796 251.159H290.744L289.692 252.227L288.64 253.295L287.588 254.363L286.536 255.432L285.484 256.5L284.432 257.568L283.38 258.637L282.328 259.705L281.275 260.773H280.223L279.171 261.841L278.119 262.91L277.067 263.978L276.015 265.046L274.963 266.115L273.911 267.183L272.859 268.251L271.807 269.319H270.755L269.703 270.388L268.651 271.456L267.599 272.524L266.547 273.592L265.495 274.661L264.443 275.729L263.39 276.797L262.338 277.866H261.286L260.234 278.934L259.182 280.002L258.13 281.07L257.078 282.139L256.026 283.207L254.974 284.275L253.922 285.344L252.87 286.412H251.818L250.766 287.48L249.714 288.548L248.662 289.617L247.61 290.685L246.557 291.753L245.505 292.822L244.453 293.89L243.401 294.958L242.349 296.026H241.297L240.245 297.095L239.193 298.163L238.141 299.231L237.089 300.299L236.037 301.368L234.985 302.436L233.933 303.504L232.881 304.573H231.829L230.777 305.641L229.725 306.709L228.672 307.777L227.62 308.846L226.568 309.914L225.516 310.982L224.464 312.051L223.412 313.119H222.36L221.308 314.187H220.256H219.204H218.152H217.1H216.048H214.996H213.944H212.892H211.839H210.787H209.735H208.683H207.631H206.579H205.527H204.475H203.423H202.371H201.319H200.267H199.215H198.163H197.111H196.059H195.007H193.954H192.902H191.85H190.798H189.746H188.694L187.642 313.119V312.051L186.59 310.982L185.538 309.914L184.486 308.846L183.434 307.777V306.709L182.382 305.641L181.33 304.573L180.278 303.504V302.436L179.226 301.368L178.174 300.299L177.121 299.231L176.069 298.163V297.095L175.017 296.026L173.965 294.958L172.913 293.89V292.822L171.861 291.753L170.809 290.685L169.757 289.617L168.705 288.548V287.48L167.653 286.412L166.601 285.344L165.549 284.275V283.207L164.497 282.139L163.445 281.07L162.393 280.002L161.341 278.934V277.866L160.289 276.797L159.236 275.729L158.184 274.661V273.592L157.132 272.524L156.08 271.456L155.028 270.388L153.976 269.319V268.251L152.924 267.183L151.872 266.115L150.82 265.046V263.978L149.768 262.91L148.716 261.841L147.664 260.773L146.612 259.705V258.637L145.56 257.568L144.508 256.5L143.456 255.432V254.363L142.403 253.295L141.351 252.227L140.299 251.159L139.247 250.09V249.022L138.195 247.954L137.143 246.885L136.091 245.817V244.749L135.039 243.681L133.987 242.612L132.935 241.544L131.883 240.476V239.407L130.831 238.339L129.779 237.271L128.727 236.203L127.675 235.134V234.066L126.623 232.998L125.571 231.929L124.518 230.861V229.793L123.466 228.725L122.414 227.656L121.362 226.588L120.31 225.52V224.452L119.258 223.383L118.206 222.315L117.154 221.247V220.178L116.102 219.11L115.05 218.042L113.998 216.974L112.946 215.905V214.837L111.894 213.769L110.842 212.7L109.79 211.632V210.564L108.738 209.496L109.79 208.427L110.842 207.359L111.894 206.291L112.946 205.222L113.998 204.154L115.05 203.086L116.102 202.018L117.154 200.949L118.206 199.881L119.258 198.813L120.31 197.744L121.362 196.676L122.414 195.608L123.466 194.54L124.518 193.471L125.571 192.403L126.623 191.335L127.675 190.266L128.727 189.198L129.779 188.13L130.831 187.062L131.883 185.993L132.935 184.925L133.987 183.857L135.039 182.789L136.091 181.72L137.143 180.652L138.195 179.584L139.247 178.515L140.299 177.447L141.351 176.379L142.403 175.311L143.456 174.242L144.508 173.174L145.56 172.106L146.612 171.037L147.664 169.969L148.716 168.901L149.768 167.833L150.82 166.764L151.872 165.696L152.924 164.628L153.976 163.559H155.028L156.08 162.491L157.132 161.423L158.184 160.355L159.236 159.286L160.289 158.218L161.341 157.15L162.393 156.081L163.445 155.013L164.497 153.945L165.549 152.877L166.601 151.808L167.653 150.74L168.705 149.672L169.757 148.604L170.809 147.535L171.861 146.467L172.913 145.399L173.965 144.33L175.017 143.262L176.069 142.194L177.121 141.126L178.174 140.057L179.226 138.989L180.278 137.921L181.33 136.852L182.382 135.784L183.434 134.716L184.486 133.648L185.538 132.579L186.59 131.511L187.642 130.443L188.694 129.374L189.746 128.306L190.798 127.238L191.85 126.17L192.902 125.101L193.954 124.033L195.007 122.965L196.059 121.896L197.111 120.828L198.163 119.76L199.215 118.692L200.267 117.623L201.319 116.555H202.371L203.423 115.487L204.475 114.418L205.527 113.35L206.579 112.282L207.631 111.214L208.683 110.145L209.735 109.077L210.787 108.009L211.839 106.941L212.892 105.872L213.944 104.804L214.996 103.736L216.048 102.667L217.1 101.599L218.152 100.531L219.204 99.4625L220.256 98.3943L221.308 97.326L222.36 96.2577L223.412 95.1894L224.464 94.1211L225.516 93.0528L226.568 91.9846L227.62 90.9163L228.672 89.848L229.725 88.7797L230.777 87.7114L231.829 86.6432L232.881 85.5749H233.933H234.985H236.037H237.089H238.141H239.193H240.245H241.297H242.349H243.401H244.453H245.505H246.557H247.61H248.662H249.714H250.766H251.818H252.87H253.922H254.974H256.026H257.078H258.13H259.182H260.234H261.286H262.338H263.39H264.443H265.495H266.547H267.599H268.651H269.703H270.755H271.807H272.859H273.911H274.963H276.015H277.067H278.119H279.171H280.223H281.275H282.328H283.38H284.432H285.484H286.536H287.588H288.64H289.692H290.744H291.796H292.848H293.9H294.952H296.004H297.056H298.108H299.161H300.213H301.265H302.317H303.369H304.421H305.473H306.525H307.577H308.629H309.681H310.733H311.785H312.837H313.889H314.941H315.994H317.046H318.098H319.15H320.202H321.254H322.306H323.358H324.41H325.462H326.514H327.566H328.618H329.67H330.722H331.774H332.826H333.879H334.931H335.983H337.035H338.087H339.139H340.191H341.243H342.295H343.347H344.399H345.451H346.503H347.555H348.607H349.659H350.711H351.764H352.816H353.868H354.92H355.972H357.024H358.076H359.128H360.18H361.232H362.284H363.336H364.388H365.44H366.492H367.544H368.597H369.649H370.701H371.753L372.805 86.6432L373.857 87.7114V88.7797L374.909 89.848L375.961 90.9163L377.013 91.9846V93.0528L378.065 94.1211L379.117 95.1894L380.169 96.2577V97.326L381.221 98.3943L382.273 99.4625L383.325 100.531V101.599L384.377 102.667L385.43 103.736L386.482 104.804V105.872L387.534 106.941L388.586 108.009L389.638 109.077L390.69 110.145V111.214L391.742 112.282L392.794 113.35L393.846 114.418V115.487L394.898 116.555L395.95 117.623L397.002 118.692V119.76L398.054 120.828L399.106 121.896L400.158 122.965V124.033L401.21 125.101L402.262 126.17L403.315 127.238V128.306L404.367 129.374L405.419 130.443L406.471 131.511L407.523 132.579V133.648L408.575 134.716L409.627 135.784L410.679 136.852V137.921L411.731 138.989L412.783 140.057L413.835 141.126V142.194L414.887 143.262L415.939 144.33L416.991 145.399V146.467L418.043 147.535L419.095 148.604L420.148 149.672V150.74L421.2 151.808L422.252 152.877L423.304 153.945V155.013L424.356 156.081L425.408 157.15L426.46 158.218L427.512 159.286V160.355L428.564 161.423L429.616 162.491L430.668 163.559V164.628L431.72 165.696L432.772 166.764L433.824 167.833V168.901L434.876 169.969L435.928 171.037L436.981 172.106V173.174L438.033 174.242L439.085 175.311L440.137 176.379V177.447L441.189 178.515L442.241 179.584L443.293 180.652L444.345 181.72V182.789L445.397 183.857L446.449 184.925L447.501 185.993V187.062L448.553 188.13L449.605 189.198L450.657 190.266V191.335L451.709 192.403L452.761 193.471L453.813 194.54V195.608L454.866 196.676L455.918 197.744L456.97 198.813V199.881L458.022 200.949L459.074 202.018L460.126 203.086V204.154L461.178 205.222L462.23 206.291L463.282 207.359L464.334 208.427V209.496L465.386 210.564L466.438 211.632L467.49 212.7V213.769L468.542 214.837L469.594 215.905L470.646 216.974V218.042L471.698 219.11L472.751 220.178L473.803 221.247V222.315L474.855 223.383L475.907 224.452L476.959 225.52V226.588L478.011 227.656L479.063 228.725L480.115 229.793L481.167 230.861V231.929L482.219 232.998L483.271 234.066L484.323 235.134V236.203L485.375 237.271L486.427 238.339L487.479 239.407V240.476L488.531 241.544L489.584 242.612L490.636 243.681V244.749L491.688 245.817L492.74 246.885L493.792 247.954V249.022L494.844 250.09L495.896 251.159L496.948 252.227V253.295L498 254.363V253.295V252.227V251.159V250.09V249.022V247.954V246.885V245.817V244.749V243.681V242.612V241.544V240.476V239.407V238.339V237.271V236.203V235.134V234.066V232.998V231.929V230.861V229.793V228.725V227.656V226.588V225.52V224.452V223.383V222.315V221.247V220.178V219.11V218.042V216.974V215.905V214.837V213.769V212.7V211.632V210.564V209.496V208.427V207.359V206.291V205.222V204.154V203.086V202.018V200.949V199.881V198.813V197.744V196.676V195.608V194.54V193.471V192.403V191.335V190.266V189.198V188.13V187.062V185.993V184.925V183.857V182.789V181.72V180.652V179.584V178.515V177.447V176.379V175.311V174.242V173.174V172.106V171.037V169.969V168.901V167.833V166.764V165.696V164.628V163.559V162.491V161.423V160.355V159.286V158.218V157.15V156.081V155.013V153.945V152.877V151.808V150.74V149.672V148.604V147.535V146.467V145.399V144.33V143.262V142.194V141.126V140.057V138.989V137.921V136.852V135.784V134.716L496.948 133.648L495.896 132.579V131.511L494.844 130.443L493.792 129.374L492.74 128.306L491.688 127.238V126.17L490.636 125.101L489.584 124.033L488.531 122.965V121.896L487.479 120.828L486.427 119.76L485.375 118.692V117.623L484.323 116.555L483.271 115.487L482.219 114.418V113.35L481.167 112.282L480.115 111.214L479.063 110.145V109.077L478.011 108.009L476.959 106.941L475.907 105.872L474.855 104.804V103.736L473.803 102.667L472.751 101.599L471.698 100.531V99.4625L470.646 98.3943L469.594 97.326L468.542 96.2577V95.1894L467.49 94.1211L466.438 93.0528L465.386 91.9846V90.9163L464.334 89.848L463.282 88.7797L462.23 87.7114V86.6432L461.178 85.5749L460.126 84.5066L459.074 83.4383L458.022 82.37V81.3018L456.97 80.2335L455.918 79.1652L454.866 78.0969V77.0286L453.813 75.9603L452.761 74.8921L451.709 73.8238V72.7555L450.657 71.6872L449.605 70.6189L448.553 69.5507V68.4824L447.501 67.4141L446.449 66.3458L445.397 65.2775V64.2092L444.345 63.141L443.293 62.0727L442.241 61.0044V59.9361L441.189 58.8678L440.137 57.7996L439.085 56.7313L438.033 55.663V54.5947L436.981 53.5264L435.928 52.4581L434.876 51.3899V50.3216L433.824 49.2533L432.772 48.185L431.72 47.1167V46.0485L430.668 44.9802L429.616 43.9119L428.564 42.8436V41.7753L427.512 40.707L426.46 39.6388L425.408 38.5705V37.5022L424.356 36.4339L423.304 35.3656L422.252 34.2974L421.2 33.2291V32.1608L420.148 31.0925L419.095 30.0242L418.043 28.9559V27.8877L416.991 26.8194L415.939 25.7511L414.887 24.6828V23.6145L413.835 22.5463L412.783 21.478L411.731 20.4097V19.3414L410.679 18.2731L409.627 17.2048L408.575 16.1366V15.0683L407.523 14H406.471H405.419H404.367H403.315H402.262H401.21H400.158H399.106H398.054H397.002H395.95H394.898H393.846H392.794H391.742H390.69H389.638H388.586H387.534H386.482H385.43H384.377H383.325H382.273H381.221H380.169H379.117H378.065H377.013H375.961H374.909H373.857H372.805H371.753H370.701H369.649H368.597H367.544H366.492H365.44H364.388H363.336H362.284H361.232H360.18H359.128H358.076H357.024H355.972H354.92H353.868H352.816H351.764H350.711H349.659H348.607H347.555H346.503H345.451H344.399H343.347H342.295H341.243H340.191H339.139H338.087H337.035H335.983H334.931H333.879H332.826H331.774H330.722H329.67H328.618H327.566H326.514H325.462H324.41H323.358H322.306H321.254H320.202H319.15H318.098H317.046H315.994H314.941H313.889H312.837H311.785H310.733H309.681H308.629H307.577H306.525H305.473H304.421H303.369H302.317H301.265H300.213H299.161H298.108H297.056H296.004H294.952H293.9H292.848H291.796H290.744H289.692H288.64H287.588H286.536H285.484H284.432H283.38H282.328H281.275H280.223H279.171H278.119H277.067H276.015H274.963H273.911H272.859H271.807H270.755H269.703H268.651H267.599H266.547H265.495H264.443H263.39H262.338H261.286H260.234H259.182H258.13H257.078H256.026H254.974H253.922H252.87H251.818H250.766H249.714H248.662H247.61H246.557H245.505H244.453H243.401H242.349H241.297H240.245H239.193H238.141H237.089H236.037H234.985H233.933H232.881H231.829H230.777H229.725H228.672H227.62H226.568H225.516H224.464H223.412H222.36H221.308H220.256H219.204H218.152H217.1H216.048H214.996H213.944H212.892H211.839H210.787H209.735H208.683H207.631H206.579H205.527H204.475H203.423Z" fill="#2758C8"></path></svg>