<svg id="Layer_2" data-name="Layer 2" xmlns="http://www.w3.org/2000/svg" width="793.013" height="130.771" viewBox="0 0 793.013 130.771">
  <g id="_1" data-name="1">
    <path id="_1-2" data-name="1" d="M151.466,46.07,123.62,93.436A77.724,77.724,0,0,1,128,100.025c.874,1.409,1.71,2.842,2.542,4.278q1.733,2.973,3.439,5.969t3.466,6.1q1.317,2.311,2.63,4.656c1.155,2.041,2.892,4.687,5.21,5.5a4.721,4.721,0,0,0,3.2.123,44.383,44.383,0,0,0,6.735-6.161c1.182-1.279,2.334-2.526,3.389-3.909q4.583-5.992,8.6-12.381c2.7-4.3,5.2-8.715,7.76-13.093l8.133-13.94q4.047-6.932,8.087-13.863l10.043-17.214s-44.216.123-49.773-.015Z" transform="translate(-76.015 -28.329)" fill="#10c5a8"/>
    <path id="_2" data-name="2" d="M0,148.61H35.621c8.811,0,13.093,7.205,17.125,13.736.874,1.409,1.71,2.846,2.542,4.278q1.733,2.981,3.439,5.973t3.466,6.1q1.317,2.311,2.63,4.66c1.155,2.041,2.892,4.683,5.21,5.5,1.155.408,2.854.632,3.851-.285a24.336,24.336,0,0,1-6.9,4.74,33.726,33.726,0,0,1-9.489,3.058,43.438,43.438,0,0,1-18.284-.612,36.789,36.789,0,0,1-4.317-1.429c-8.526-3.412-13-9.05-17.56-15.708a64.353,64.353,0,0,1-3.628-5.977Z" transform="translate(0 -91.382)" fill="#03e4b5" fill-rule="evenodd"/>
    <path id="_3" data-name="3" d="M271.39,113.611l17.46-29.818a11.892,11.892,0,0,1,3.8-3.739,13.857,13.857,0,0,1,7.294-2.18c2.287.058,13.347,0,13.347,0l-4.105,6.932c-2.607,4.4-4.552,8.8-7.159,13.2-2.311,3.886-4.444,8.491-7.875,11.553C287.9,115.075,279.123,113.611,271.39,113.611Z" transform="translate(-166.88 -47.884)" fill="#5551ff" fill-rule="evenodd"/>
    <g id="Group_1" data-name="Group 1" transform="translate(168.404)">
      <path id="Path_1" data-name="Path 1" d="M760.724,29.794c-15.642,5.43-24.357,20.163-22.72,38.444a33.875,33.875,0,0,0,41.59,30.38c8.661-2,15.484-6.789,20.795-14.737-3.081-1.128-9.385-3.793-11.957-4.756l-3.447,2.988a21.08,21.08,0,0,1-32.525-7.652,20.472,20.472,0,0,1-1.444-4.452h54.818c0-3.254.05-6.05,0-8.857a34.067,34.067,0,0,0-45.11-31.358Zm-9.057,27.137c1.579-9.485,10.255-16.174,20.391-16.058,9.966.116,18.484,6.932,19.832,16.058Zm211.288-28.5c-16.22,2.834-27.546,16.455-28.011,34.05-.385,13.917,4.744,25.27,17.063,32.378,11.969,6.9,26.733,4.829,38.463-2.426l.116,5.172h12.03s.35-18.257.362-19.936a191.469,191.469,0,0,0-.62-20.652c-1.941-19.2-20.406-31.889-39.4-28.57ZM990.319,64.5a28.383,28.383,0,0,1-.6,5.9,20.793,20.793,0,0,1-1.475,4.236,21.2,21.2,0,0,1-2.21,3.635,21.892,21.892,0,0,1-2.75,3.008,22.15,22.15,0,0,1-3.108,2.349,20.232,20.232,0,0,1-3.262,1.648A21.411,21.411,0,0,1,953.3,79.983c-6.385-6.778-7.821-19.493-3.177-28.15,6.573-12.257,23.96-14.834,33.888-5.049,4.671,4.621,6.381,10.729,6.339,17.144-.019.2-.023.381-.027.585Zm-425.1,8.226a45.705,45.705,0,0,1-5.249-5.037,7.459,7.459,0,0,1-.354-9.208,28.185,28.185,0,0,1,3.547-3.943l25.628-25.012H588c-3.25,0-6.5-.1-9.754-.039a18.8,18.8,0,0,0-5.43.6c-1.925.608-3.281,1.976-4.737,3.289-3.281,2.95-6.423,6.042-9.627,9.08s-6.273,6.031-10.07,9.685V0H536.1V97.62h12.323V74.088c8.888,7.471,17.329,14.58,25.8,21.634,1.067.89,2.361,2.056,3.589,2.106,5.391.231,12.465.181,17.864.181l-4.094-3.277C582.8,87.381,573.983,80.1,565.222,72.724ZM848.791,85.282a24.337,24.337,0,0,1-10.548-2.311,20.132,20.132,0,0,1-6.743-5.295,16.613,16.613,0,0,1-3.527-7.683c-1.494-8.838-1.063-18-1.51-27.727h26.186V29.56H826.741V4.144h-12.4v2.4c0,19.509-.385,39.033.166,58.534.454,15.7,10.455,27.665,25.031,31.577a37.974,37.974,0,0,0,16.332.87V85.274C853.5,85.274,851.163,85.309,848.791,85.282Zm197.128-55.534c-16.231.77-29.941,12.007-31.7,28.058-1.421,12.966-.416,26.683-.474,39.8h12.08V93.046c0-9.365-.066-18.735,0-28.112a27.336,27.336,0,0,1,1.19-7.9,21.206,21.206,0,0,1,3.289-6.45,19.641,19.641,0,0,1,5.16-4.733,22.177,22.177,0,0,1,6.808-2.8c3.778-.882,7.656-.682,11.5-.7h8.141V29.71C1056.251,29.71,1051.075,29.506,1045.919,29.748ZM510.042,97.624h12.323V29.848H510.042ZM483.12,59.631a29.145,29.145,0,0,0-3.566-.47c-2.507-.181-5.006-.551-7.505-.809q-1.972-.2-3.939-.431c-6.027-.736-16.848-.435-16.5-9.242.177-4.482,4.132-7.1,8.06-8.156,8.048-2.176,18.457-.666,23.4,6.7a20.473,20.473,0,0,0,1.329,2.272h12.589a30.106,30.106,0,0,0-1.895-5.137,23.587,23.587,0,0,0-7.386-8.888,31.673,31.673,0,0,0-12.927-5.1c-13.709-2.58-35.274,1.29-35.12,19.162A17.441,17.441,0,0,0,453.461,66.5a67.061,67.061,0,0,0,8.907,1.386c4.155.277,8.314.5,12.454.924,4.621.485,9.627,1.833,10.829,7.066,1.463,6.489-4.479,10.232-9.951,11.341a29.651,29.651,0,0,1-16.251-1.051,16.941,16.941,0,0,1-8.607-7.994l-.624-1.263H437.31a43.046,43.046,0,0,0,4.117,8.6c5.126,7.994,14.545,11.834,24.23,12.5l-2.28,4.174v.019h.031l2.622,4.282a4.194,4.194,0,1,1-2.041,3.6h-6.161a10.355,10.355,0,1,0,13.316-9.931l1.186-2.191A42.284,42.284,0,0,0,485.4,94.879c.385-.154.732-.316,1.09-.481a19.254,19.254,0,0,0,8.857-7.763c3.466-5.865,3.562-14.029-.293-19.713-2.823-4.151-7.205-6.35-11.93-7.29ZM703.612,81.2a2.245,2.245,0,0,1-4.167.119L677.291,30.156h-13.34l30.064,68.758a6.642,6.642,0,0,1-.085,5.5c-3.728,9.481-9.754,15.369-19.362,14.653V130.7c14.633,1.005,25.8-8.187,31.843-24.261l29.267-76.248H722.335Zm215.2-51.159a3.373,3.373,0,0,0-1.417,1.479,12.8,12.8,0,0,0-.809,2.257c-.289.943-.555,1.895-.828,2.846q-.84,2.919-1.671,5.842-1.664,5.846-3.308,11.7L907.483,65.85q-1.352,4.794-2.7,9.593a35.919,35.919,0,0,1-2.438,6.97,7.662,7.662,0,0,1-13.863,0,34.847,34.847,0,0,1-2.434-6.97q-1.363-4.794-2.7-9.593-1.652-5.85-3.3-11.7t-3.308-11.7q-.832-2.923-1.667-5.842c-.273-.951-.539-1.9-.828-2.846a10.145,10.145,0,0,0-1.013-2.518,3.213,3.213,0,0,0-2.183-1.629c-3.612-.123-7.232-.05-10.856-.05.57,2.257.893,3.647,1.275,5.006,4.2,15.019,8.372,30.064,12.643,45.056a44.708,44.708,0,0,0,3.227,8.753,20.232,20.232,0,0,0,36.137,0,44.9,44.9,0,0,0,3.227-8.753c4.274-15.019,8.445-30.037,12.646-45.056.385-1.367.7-2.757,1.275-5.006h-9.242a6.188,6.188,0,0,0-2.584.474ZM620.929,28.628c-16.224,2.834-27.546,16.459-28.015,34.05-.385,13.917,4.748,25.273,17.063,32.378,11.973,6.9,26.737,4.829,38.467-2.422l.116,5.168h12.026s.354-18.257.366-19.936a193.512,193.512,0,0,0-.62-20.652c-1.941-19.216-20.406-31.9-39.4-28.585ZM648.293,64.7a28.383,28.383,0,0,1-.6,5.9,20.954,20.954,0,0,1-3.685,7.871,21.978,21.978,0,0,1-5.861,5.353,20.7,20.7,0,0,1-3.258,1.652,21.419,21.419,0,0,1-23.618-5.3c-6.385-6.778-7.821-19.493-3.177-28.15,6.57-12.257,23.96-14.834,33.888-5.049,4.671,4.621,6.377,10.732,6.335,17.144-.019.189-.019.377-.023.574ZM516.219.943a7.783,7.783,0,1,0,7.771,7.783A7.783,7.783,0,0,0,516.219.943Z" transform="translate(-437.31)" fill="#191a58"/>
    </g>
  </g>
</svg>
